# AST/ASF file generated using VICON BodyLanguage
# -----------------------------------------------
:version 1.10
:name VICON
:units
  mass 1.0
  length 0.1
  angle deg
:documentation
   .ast/.asf automatically generated from VICON data using
   VICON BodyBuilder and BodyLanguage model FULLBODY5.MOD
:root
   order TX TY TZ RZ RY RX
   axis XYZ
   position 0 0 0  
   orientation 0 -0 0 
:bonedata
  begin
     id 1 
     name lhipjoint
     direction 0.961525 -0.229516 0.150972 
     length 0.502153 
     axis 0 -0 0  XYZ
  end
  begin
     id 2 
     name lfemur
     direction 0.173648 -0.984808 0  
     length 1.83052  
     axis 0 -0 10  XYZ
    dof rx ry rz
    limits (-180.0 180.0)
           (-180.0 180.0)
           (-180.0 180.0)
  end
  begin
     id 3 
     name ltibia
     direction 0.173629 -0.984811 0   
     length 1.50296   
     axis 0 -0 10   XYZ
    dof rx ry rz
    limits (-180.0 180.0)
           (-180.0 180.0)
           (-180.0 180.0)
  end
  begin
     id 4 
     name lfoot
     direction 7.59329e-012 -0.227408 0.9738   
     length 0.574743   
     axis -90 -1.73656e-015 10   XYZ
    dof rx ry rz
    limits (-180.0 180.0)
           (-180.0 180.0)
           (-180.0 180.0)
  end
  begin
     id 5 
     name ltoes
     direction 7.79885e-012 -4.41741e-011 1   
     length 0.28489   
     axis -90 -1.73656e-015 10   XYZ
    dof rx ry rz
    limits (-180.0 180.0)
           (-180.0 180.0)
           (-180.0 180.0)
  end
  begin
     id 6 
     name rhipjoint
     direction -0.970498 -0.201437 0.132502   
     length 0.572149  
     axis 0 -0 0  XYZ 
  end
  begin
     id 7 
     name rfemur
     direction -0.173648 -0.984808 0   
     length 1.71866   
     axis 0 -0 -10   XYZ
    dof rx ry rz
    limits (-180.0 180.0)
           (-180.0 180.0)
           (-180.0 180.0)
  end
  begin
     id 8 
     name rtibia
     direction -0.173624 -0.984812 0   
     length 1.42623   
     axis 0 -0 -10   XYZ
    dof rx ry rz
    limits (-180.0 180.0)
           (-180.0 180.0)
           (-180.0 180.0)
 end
 begin
     id 9 
     name rfoot
     direction -7.12931e-012 -0.404275 0.914637   
     length 0.524692  
     axis -90 1.73656e-015 -10   XYZ
    dof rx ry rz
    limits (-180.0 180.0)
           (-180.0 180.0)
           (-180.0 180.0)
  end
  begin
     id 10 
     name rtoes
     direction -7.79289e-012 -4.41454e-011 1   
     length 0.254983   
     axis -90 1.73656e-015 -10   XYZ
    dof rx ry rz
    limits (-180.0 180.0)
           (-180.0 180.0)
           (-180.0 180.0)
  end
  begin
     id 11 
     name lowerback
     direction -0.0214086 0.993738 0.109665   
     length 0.417614   
     axis 0 -0 0   XYZ
    dof rx ry rz
    limits (-180.0 180.0)
           (-180.0 180.0)
           (-180.0 180.0)
  end
  begin
     id 12 
     name upperback
     direction 8.15962e-005 0.99996 0.00893412   
     length 0.419234   
     axis 0 -0 0   XYZ
    dof rx ry rz
    limits (-180.0 180.0)
           (-180.0 180.0)
           (-180.0 180.0)
  end
  begin
     id 13 
     name thorax
     direction 0.00826031 0.999067 -0.0423848   
     length 0.424697   
     axis 0 -0 0   XYZ
    dof rx ry rz
    limits (-180.0 180.0)
           (-180.0 180.0)
           (-180.0 180.0)
  end
  begin
     id 14 
     name lowerneck
     direction -0.0196262 0.994272 -0.105058   
     length 0.355877   
     axis 0 -0 0   XYZ
    dof rx ry rz
    limits (-180.0 180.0)
           (-180.0 180.0)
           (-180.0 180.0)
  end
  begin
     id 15 
     name upperneck
     direction 0.000117372 0.999091 0.0426261   
     length 0.351054   
     axis 0 -0 0   XYZ
    dof rx ry rz
    limits (-180.0 180.0)
           (-180.0 180.0)
           (-180.0 180.0)
  end
  begin
     id 16
     name head
     direction 0.00157618 0.999651 0.0263619  
     length 0.374844  
     axis 0 -0 0   XYZ
    dof rx ry rz
    limits (-180.0 180.0)
           (-180.0 180.0)
           (-180.0 180.0)
  end
  begin
     id 17 
     name lshoulderjoint
     direction 0.981627 -0.190809 0  
     length 0.701763  
     axis 0 -0 -11   XYZ
    dof rx ry rz
    limits (-180.0 180.0)
           (-180.0 180.0)
           (-180.0 180.0)
  end
  begin
     id 18 
     name lhumerus
     direction 0.48481 -0.87462 -1.80676e-026   
     length 0.994704   
     axis -180 5.14477e-009 -151   XYZ
    dof rx ry rz
    limits (-180.0 180.0)
           (-180.0 180.0)
           (-180.0 180.0)
  end
  begin
     id 19
     name lradius
     direction 0.48481 -0.87462 -3.2569e-026   
     length 0.617638   
     axis -180 5.14477e-009 -151   XYZ
    dof rx ry rz
    limits (-180.0 180.0)
           (-180.0 180.0)
           (-180.0 180.0)
  end
  begin
     id 20
     name lwrist
     direction 0.48481 -0.87462 -6.73202e-026   
     length 0.308819   
     axis -180 5.14477e-009 -151   XYZ
    dof rx ry rz
    limits (-180.0 180.0)
           (-180.0 180.0)
           (-180.0 180.0)
  end
  begin
     id 21 
     name lhand
     direction 0.478366 -0.863761 -0.158376   
     length 0.291656   
     axis -180 5.14477e-009 -151   XYZ
    dof rx ry rz
    limits (-180.0 180.0)
           (-180.0 180.0)
           (-180.0 180.0)
  end
  begin
     id 22 
     name rshoulderjoint
     direction -0.981627 -0.190809 0   
     length 0.66654  
     axis 0 -0 11   XYZ 
    dof rx ry rz
    limits (-180.0 180.0)
           (-180.0 180.0)
           (-180.0 180.0)
  end
  begin
     id 23 
     name rhumerus
     direction -0.48481 -0.87462 1.77576e-026  
     length 1.15089   
     axis 180 5.14477e-009 151   XYZ
    dof rx ry rz
    limits (-180.0 180.0)
           (-180.0 180.0)
           (-180.0 180.0)
  end
  begin
     id 24 
     name rradius
     direction -0.48481 -0.87462 3.79421e-026   
     length 0.613887   
     axis 180 5.14477e-009 151   XYZ
    dof rx ry rz
    limits (-180.0 180.0)
           (-180.0 180.0)
           (-180.0 180.0)
  end
  begin
     id 25 
     name rwrist
     direction -0.48481 -0.87462 5.43623e-026   
     length 0.306944   
     axis 180 5.14477e-009 151   XYZ
    dof rx ry rz
    limits (-180.0 180.0)
           (-180.0 180.0)
           (-180.0 180.0)
  end
  begin
     id 26
     name rhand
     direction -0.479273 -0.864638 -0.150661   
     length 0.306429   
     axis 180 5.14477e-009 151   XYZ
    dof rx ry rz
    limits (-180.0 180.0)
           (-180.0 180.0)
           (-180.0 180.0)
  end
:hierarchy
  begin
    root lhipjoint rhipjoint lowerback 
    lhipjoint lfemur
    lfemur ltibia
    ltibia lfoot
    lfoot ltoes
    rhipjoint rfemur
    rfemur rtibia
    rtibia rfoot
    rfoot rtoes
    lowerback upperback
    upperback thorax
    thorax lowerneck lshoulderjoint rshoulderjoint
    lowerneck upperneck
    upperneck head
    lshoulderjoint lhumerus
    lhumerus lradius
    lradius lwrist
    lwrist lhand
    rshoulderjoint rhumerus
    rhumerus rradius
    rradius rwrist
    rwrist rhand
  end

:FULLY-SPECIFIED
:DEGREES
1292
root -10.1589 3.72073 -0.457934 -99.4334 72.8868 103.204
lowerback -13.5095 -2.24128 -3.38623
upperback -3.07271 -2.33025 -0.526698
thorax 4.44321 -1.12372 0.96272
lowerneck 11.8615 0.844198 -0.830247
upperneck -2.32972 0.892789 -2.84652
head -2.81731 0.588157 -0.83632
rshoulderjoint 1.30233 -3.23117 -32.966
rhumerus -6.56663 -15.7937 -55.6699
rradius 32.7036 3.81667e-014 7.7526e-014
rwrist -4.51266e-014 9.34438 9.83115e-014
rhand 9.69264 -7.98524 31.9993
lshoulderjoint 2.94342 11.3171 25.6823
lhumerus 2.33093 6.73706 54.2811
lradius 19.5199 -3.49861e-014 3.51849e-014
lwrist -4.49465e-014 -7.82734 8.02617e-014
lhand 22.5843 7.54789 -14.6402
rfemur -12.253 -1.80526 12.8837
rtibia 4.77083e-015 8.27441e-015 2.38542e-015
rfoot -5.35807 15.8099 -12.0683
rtoes -4.92986e-014 7.59854e-014 2.06736e-014
lfemur -24.0339 -38.405 -5.309
ltibia 13.5804 1.27222e-014 -1.59028e-015
lfoot -8.09217 -2.50591 32.3749
ltoes -8.8161e-014 4.03284e-014 -1.23246e-014
1293
root -10.1543 3.71888 -0.455253 -99.787 72.8223 103.481
lowerback -13.6356 -2.24034 -3.39381
upperback -3.11971 -2.32244 -0.483748
thorax 4.46436 -1.11837 1.01031
lowerneck 11.9384 0.816819 -0.762071
upperneck -2.24893 0.866526 -2.89206
head -2.80424 0.576613 -0.861638
rshoulderjoint 1.31625 -3.27322 -32.9206
rhumerus -6.64811 -15.9943 -55.5405
rradius 32.6664 6.36111e-015 -2.62396e-014
rwrist 2.86947e-013 9.42938 -8.86632e-014
rhand 9.68352 -8.09326 32.023
lshoulderjoint 2.94109 11.313 25.6762
lhumerus 2.21596 6.46829 54.204
lradius 19.502 -5.725e-014 -1.12512e-013
lwrist 2.69722e-013 -7.89252 -1.32453e-013
lhand 22.5418 7.68782 -14.7553
rfemur -12.2105 -1.8933 13.0195
rtibia -7.79236e-014 1.33186e-014 -7.95139e-016
rfoot -5.43217 15.7376 -12.0767
rtoes 1.72545e-013 -1.27222e-014 -6.83819e-014
lfemur -23.7718 -38.128 -5.32021
ltibia 13.227 -5.40694e-014 -2.3059e-014
lfoot -8.43711 -2.15843 31.8048
ltoes 1.9156e-013 1.23507e-015 -3.57812e-014
1294
root -10.1497 3.71731 -0.452764 -100.145 72.7404 103.818
lowerback -13.8065 -2.25313 -3.40885
upperback -3.13901 -2.32637 -0.495319
thorax 4.53761 -1.11957 1.00084
lowerneck 11.9481 0.789523 -0.656306
upperneck -2.16323 0.847985 -2.90705
head -2.77667 0.566309 -0.883313
rshoulderjoint 1.34771 -3.37268 -32.7965
rhumerus -6.61114 -16.2586 -55.443
rradius 32.5754 3.435e-013 -6.79844e-014
rwrist 8.47987e-013 9.44719 -6.35184e-013
rhand 9.78108 -8.07185 31.9953
lshoulderjoint 2.94421 11.3176 25.6855
lhumerus 2.17317 6.28653 54.1086
lradius 19.4708 -2.51264e-013 -4.8901e-014
lwrist 7.19406e-013 -7.9775 1.75837e-013
lhand 22.5653 7.83596 -14.8154
rfemur -12.1771 -2.00391 13.0952
rtibia -8.0309e-014 1.98288e-014 -1.35174e-014
rfoot -5.52862 15.6587 -12.0917
rtoes 2.26217e-013 -2.27658e-013 4.92986e-014
lfemur -23.5223 -37.8706 -5.37139
ltibia 12.8676 3.81667e-014 1.35174e-014
lfoot -8.62679 -1.90717 31.3153
ltoes 1.59177e-013 -1.04797e-014 7.23576e-014
1295
root -10.145 3.71651 -0.449834 -100.573 72.658 104.291
lowerback -13.9587 -2.30716 -3.59826
upperback -3.14809 -2.3642 -0.448388
thorax 4.62219 -1.14016 1.14497
lowerneck 11.9421 0.770971 -0.639228
upperneck -2.11103 0.826263 -2.94634
head -2.7579 0.556707 -0.897294
rshoulderjoint 1.38125 -3.46531 -32.7478
rhumerus -6.54105 -16.5587 -55.3347
rradius 32.4552 3.49861e-013 -6.87795e-014
rwrist -6.45048e-015 9.54879 -5.01525e-013
rhand 9.84906 -8.14877 31.9842
lshoulderjoint 2.93194 11.3385 25.6014
lhumerus 2.18433 6.30496 54.0438
lradius 19.393 -2.06736e-013 -3.02153e-014
lwrist -1.25243e-013 -7.94285 5.86074e-014
lhand 22.7055 7.77393 -14.7749
rfemur -12.1332 -2.15409 13.1179
rtibia 1.59028e-014 8.77137e-015 -7.15625e-015
rfoot -5.66298 15.6311 -12.1162
rtoes 1.48293e-013 -1.69315e-013 8.26944e-014
lfemur -23.1848 -37.6542 -5.48311
ltibia 12.3107 6.99722e-014 1.66979e-014
lfoot -8.47082 -2.00826 30.9068
ltoes 8.00605e-014 -2.08258e-014 1.57437e-013
